<svg xmlns="http://www.w3.org/2000/svg" version="1.1" xmlns:xlink="http://www.w3.org/1999/xlink" xmlns:svgjs="http://svgjs.dev/svgjs" viewBox="0 0 800 800" opacity="0.1"><g stroke-width="2" stroke="#1a1a1a" fill="none" stroke-linecap="round" transform="matrix(1,0,0,1,-5,-162.9803867340088)"><path d="M10,10C16.68859649122807,12.916666666666668,26.644736842105264,28.375,42.10526315789474,24C57.56578947368422,19.625,66.66666666666667,-9.75,84.21052631578948,-11C101.75438596491229,-12.25,108.77192982456141,16.75,126.31578947368422,18C143.859649122807,19.25,150.87719298245617,-5.416666666666667,168.42105263157896,-5C185.96491228070175,-4.583333333333333,192.9824561403509,18.958333333333332,210.5263157894737,20C228.0701754385965,21.041666666666668,235.08771929824564,-1.0416666666666667,252.63157894736844,0C270.17543859649123,1.0416666666666667,277.1929824561404,26.041666666666668,294.7368421052632,25C312.280701754386,23.958333333333332,319.2982456140351,-6.875,336.8421052631579,-5C354.3859649122807,-3.125,361.40350877192986,32.75,378.94736842105266,34C396.49122807017545,35.25,403.5087719298246,-0.04166666666666674,421.0526315789474,1C438.5964912280702,2.041666666666667,445.61403508771934,38.791666666666664,463.15789473684214,39C480.70175438596493,39.208333333333336,487.7192982456141,1.5833333333333335,505.2631578947369,2C522.8070175438597,2.4166666666666665,529.8245614035088,38.291666666666664,547.3684210526317,41C564.9122807017545,43.708333333333336,571.9298245614036,15.208333333333334,589.4736842105264,15C607.0175438596491,14.791666666666666,614.0350877192982,39.791666666666664,631.578947368421,40C649.1228070175439,40.208333333333336,656.140350877193,14.333333333333334,673.6842105263158,16C691.2280701754387,17.666666666666668,698.2456140350878,47.375,715.7894736842106,48C733.3333333333335,48.625,740.3508771929826,18.791666666666668,757.8947368421053,19C775.438596491228,19.208333333333332,791.2280701754386,42.75,800,49"></path><path d="M10,10C16.68859649122807,12.916666666666668,26.644736842105264,28.375,42.10526315789474,24C57.56578947368422,19.625,66.66666666666667,-9.75,84.21052631578948,-11C101.75438596491229,-12.25,108.77192982456141,16.75,126.31578947368422,18C143.859649122807,19.25,150.87719298245617,-5.416666666666667,168.42105263157896,-5C185.96491228070175,-4.583333333333333,192.9824561403509,18.958333333333332,210.5263157894737,20C228.0701754385965,21.041666666666668,235.08771929824564,-1.0416666666666667,252.63157894736844,0C270.17543859649123,1.0416666666666667,277.1929824561404,26.041666666666668,294.7368421052632,25C312.280701754386,23.958333333333332,319.2982456140351,-6.875,336.8421052631579,-5C354.3859649122807,-3.125,361.40350877192986,32.75,378.94736842105266,34C396.49122807017545,35.25,403.5087719298246,-0.04166666666666674,421.0526315789474,1C438.5964912280702,2.041666666666667,445.61403508771934,38.791666666666664,463.15789473684214,39C480.70175438596493,39.208333333333336,487.7192982456141,1.5833333333333335,505.2631578947369,2C522.8070175438597,2.4166666666666665,529.8245614035088,38.291666666666664,547.3684210526317,41C564.9122807017545,43.708333333333336,571.9298245614036,15.208333333333334,589.4736842105264,15C607.0175438596491,14.791666666666666,614.0350877192982,39.791666666666664,631.578947368421,40C649.1228070175439,40.208333333333336,656.140350877193,14.333333333333334,673.6842105263158,16C691.2280701754387,17.666666666666668,698.2456140350878,47.375,715.7894736842106,48C733.3333333333335,48.625,740.3508771929826,18.791666666666668,757.8947368421053,19C775.438596491228,19.208333333333332,791.2280701754386,42.75,800,49" transform="matrix(1,0,0,1,0,1088)"></path><path d="M10,10C16.68859649122807,12.916666666666668,26.644736842105264,28.375,42.10526315789474,24C57.56578947368422,19.625,66.66666666666667,-9.75,84.21052631578948,-11C101.75438596491229,-12.25,108.77192982456141,16.75,126.31578947368422,18C143.859649122807,19.25,150.87719298245617,-5.416666666666667,168.42105263157896,-5C185.96491228070175,-4.583333333333333,192.9824561403509,18.958333333333332,210.5263157894737,20C228.0701754385965,21.041666666666668,235.08771929824564,-1.0416666666666667,252.63157894736844,0C270.17543859649123,1.0416666666666667,277.1929824561404,26.041666666666668,294.7368421052632,25C312.280701754386,23.958333333333332,319.2982456140351,-6.875,336.8421052631579,-5C354.3859649122807,-3.125,361.40350877192986,32.75,378.94736842105266,34C396.49122807017545,35.25,403.5087719298246,-0.04166666666666674,421.0526315789474,1C438.5964912280702,2.041666666666667,445.61403508771934,38.791666666666664,463.15789473684214,39C480.70175438596493,39.208333333333336,487.7192982456141,1.5833333333333335,505.2631578947369,2C522.8070175438597,2.4166666666666665,529.8245614035088,38.291666666666664,547.3684210526317,41C564.9122807017545,43.708333333333336,571.9298245614036,15.208333333333334,589.4736842105264,15C607.0175438596491,14.791666666666666,614.0350877192982,39.791666666666664,631.578947368421,40C649.1228070175439,40.208333333333336,656.140350877193,14.333333333333334,673.6842105263158,16C691.2280701754387,17.666666666666668,698.2456140350878,47.375,715.7894736842106,48C733.3333333333335,48.625,740.3508771929826,18.791666666666668,757.8947368421053,19C775.438596491228,19.208333333333332,791.2280701754386,42.75,800,49" transform="matrix(1,0,0,1,0,1056)"></path><path d="M10,10C16.68859649122807,12.916666666666668,26.644736842105264,28.375,42.10526315789474,24C57.56578947368422,19.625,66.66666666666667,-9.75,84.21052631578948,-11C101.75438596491229,-12.25,108.77192982456141,16.75,126.31578947368422,18C143.859649122807,19.25,150.87719298245617,-5.416666666666667,168.42105263157896,-5C185.96491228070175,-4.583333333333333,192.9824561403509,18.958333333333332,210.5263157894737,20C228.0701754385965,21.041666666666668,235.08771929824564,-1.0416666666666667,252.63157894736844,0C270.17543859649123,1.0416666666666667,277.1929824561404,26.041666666666668,294.7368421052632,25C312.280701754386,23.958333333333332,319.2982456140351,-6.875,336.8421052631579,-5C354.3859649122807,-3.125,361.40350877192986,32.75,378.94736842105266,34C396.49122807017545,35.25,403.5087719298246,-0.04166666666666674,421.0526315789474,1C438.5964912280702,2.041666666666667,445.61403508771934,38.791666666666664,463.15789473684214,39C480.70175438596493,39.208333333333336,487.7192982456141,1.5833333333333335,505.2631578947369,2C522.8070175438597,2.4166666666666665,529.8245614035088,38.291666666666664,547.3684210526317,41C564.9122807017545,43.708333333333336,571.9298245614036,15.208333333333334,589.4736842105264,15C607.0175438596491,14.791666666666666,614.0350877192982,39.791666666666664,631.578947368421,40C649.1228070175439,40.208333333333336,656.140350877193,14.333333333333334,673.6842105263158,16C691.2280701754387,17.666666666666668,698.2456140350878,47.375,715.7894736842106,48C733.3333333333335,48.625,740.3508771929826,18.791666666666668,757.8947368421053,19C775.438596491228,19.208333333333332,791.2280701754386,42.75,800,49" transform="matrix(1,0,0,1,0,1024)"></path><path d="M10,10C16.68859649122807,12.916666666666668,26.644736842105264,28.375,42.10526315789474,24C57.56578947368422,19.625,66.66666666666667,-9.75,84.21052631578948,-11C101.75438596491229,-12.25,108.77192982456141,16.75,126.31578947368422,18C143.859649122807,19.25,150.87719298245617,-5.416666666666667,168.42105263157896,-5C185.96491228070175,-4.583333333333333,192.9824561403509,18.958333333333332,210.5263157894737,20C228.0701754385965,21.041666666666668,235.08771929824564,-1.0416666666666667,252.63157894736844,0C270.17543859649123,1.0416666666666667,277.1929824561404,26.041666666666668,294.7368421052632,25C312.280701754386,23.958333333333332,319.2982456140351,-6.875,336.8421052631579,-5C354.3859649122807,-3.125,361.40350877192986,32.75,378.94736842105266,34C396.49122807017545,35.25,403.5087719298246,-0.04166666666666674,421.0526315789474,1C438.5964912280702,2.041666666666667,445.61403508771934,38.791666666666664,463.15789473684214,39C480.70175438596493,39.208333333333336,487.7192982456141,1.5833333333333335,505.2631578947369,2C522.8070175438597,2.4166666666666665,529.8245614035088,38.291666666666664,547.3684210526317,41C564.9122807017545,43.708333333333336,571.9298245614036,15.208333333333334,589.4736842105264,15C607.0175438596491,14.791666666666666,614.0350877192982,39.791666666666664,631.578947368421,40C649.1228070175439,40.208333333333336,656.140350877193,14.333333333333334,673.6842105263158,16C691.2280701754387,17.666666666666668,698.2456140350878,47.375,715.7894736842106,48C733.3333333333335,48.625,740.3508771929826,18.791666666666668,757.8947368421053,19C775.438596491228,19.208333333333332,791.2280701754386,42.75,800,49" transform="matrix(1,0,0,1,0,992)"></path><path d="M10,10C16.68859649122807,12.916666666666668,26.644736842105264,28.375,42.10526315789474,24C57.56578947368422,19.625,66.66666666666667,-9.75,84.21052631578948,-11C101.75438596491229,-12.25,108.77192982456141,16.75,126.31578947368422,18C143.859649122807,19.25,150.87719298245617,-5.416666666666667,168.42105263157896,-5C185.96491228070175,-4.583333333333333,192.9824561403509,18.958333333333332,210.5263157894737,20C228.0701754385965,21.041666666666668,235.08771929824564,-1.0416666666666667,252.63157894736844,0C270.17543859649123,1.0416666666666667,277.1929824561404,26.041666666666668,294.7368421052632,25C312.280701754386,23.958333333333332,319.2982456140351,-6.875,336.8421052631579,-5C354.3859649122807,-3.125,361.40350877192986,32.75,378.94736842105266,34C396.49122807017545,35.25,403.5087719298246,-0.04166666666666674,421.0526315789474,1C438.5964912280702,2.041666666666667,445.61403508771934,38.791666666666664,463.15789473684214,39C480.70175438596493,39.208333333333336,487.7192982456141,1.5833333333333335,505.2631578947369,2C522.8070175438597,2.4166666666666665,529.8245614035088,38.291666666666664,547.3684210526317,41C564.9122807017545,43.708333333333336,571.9298245614036,15.208333333333334,589.4736842105264,15C607.0175438596491,14.791666666666666,614.0350877192982,39.791666666666664,631.578947368421,40C649.1228070175439,40.208333333333336,656.140350877193,14.333333333333334,673.6842105263158,16C691.2280701754387,17.666666666666668,698.2456140350878,47.375,715.7894736842106,48C733.3333333333335,48.625,740.3508771929826,18.791666666666668,757.8947368421053,19C775.438596491228,19.208333333333332,791.2280701754386,42.75,800,49" transform="matrix(1,0,0,1,0,960)"></path><path d="M10,10C16.68859649122807,12.916666666666668,26.644736842105264,28.375,42.10526315789474,24C57.56578947368422,19.625,66.66666666666667,-9.75,84.21052631578948,-11C101.75438596491229,-12.25,108.77192982456141,16.75,126.31578947368422,18C143.859649122807,19.25,150.87719298245617,-5.416666666666667,168.42105263157896,-5C185.96491228070175,-4.583333333333333,192.9824561403509,18.958333333333332,210.5263157894737,20C228.0701754385965,21.041666666666668,235.08771929824564,-1.0416666666666667,252.63157894736844,0C270.17543859649123,1.0416666666666667,277.1929824561404,26.041666666666668,294.7368421052632,25C312.280701754386,23.958333333333332,319.2982456140351,-6.875,336.8421052631579,-5C354.3859649122807,-3.125,361.40350877192986,32.75,378.94736842105266,34C396.49122807017545,35.25,403.5087719298246,-0.04166666666666674,421.0526315789474,1C438.5964912280702,2.041666666666667,445.61403508771934,38.791666666666664,463.15789473684214,39C480.70175438596493,39.208333333333336,487.7192982456141,1.5833333333333335,505.2631578947369,2C522.8070175438597,2.4166666666666665,529.8245614035088,38.291666666666664,547.3684210526317,41C564.9122807017545,43.708333333333336,571.9298245614036,15.208333333333334,589.4736842105264,15C607.0175438596491,14.791666666666666,614.0350877192982,39.791666666666664,631.578947368421,40C649.1228070175439,40.208333333333336,656.140350877193,14.333333333333334,673.6842105263158,16C691.2280701754387,17.666666666666668,698.2456140350878,47.375,715.7894736842106,48C733.3333333333335,48.625,740.3508771929826,18.791666666666668,757.8947368421053,19C775.438596491228,19.208333333333332,791.2280701754386,42.75,800,49" transform="matrix(1,0,0,1,0,928)"></path><path d="M10,10C16.68859649122807,12.916666666666668,26.644736842105264,28.375,42.10526315789474,24C57.56578947368422,19.625,66.66666666666667,-9.75,84.21052631578948,-11C101.75438596491229,-12.25,108.77192982456141,16.75,126.31578947368422,18C143.859649122807,19.25,150.87719298245617,-5.416666666666667,168.42105263157896,-5C185.96491228070175,-4.583333333333333,192.9824561403509,18.958333333333332,210.5263157894737,20C228.0701754385965,21.041666666666668,235.08771929824564,-1.0416666666666667,252.63157894736844,0C270.17543859649123,1.0416666666666667,277.1929824561404,26.041666666666668,294.7368421052632,25C312.280701754386,23.958333333333332,319.2982456140351,-6.875,336.8421052631579,-5C354.3859649122807,-3.125,361.40350877192986,32.75,378.94736842105266,34C396.49122807017545,35.25,403.5087719298246,-0.04166666666666674,421.0526315789474,1C438.5964912280702,2.041666666666667,445.61403508771934,38.791666666666664,463.15789473684214,39C480.70175438596493,39.208333333333336,487.7192982456141,1.5833333333333335,505.2631578947369,2C522.8070175438597,2.4166666666666665,529.8245614035088,38.291666666666664,547.3684210526317,41C564.9122807017545,43.708333333333336,571.9298245614036,15.208333333333334,589.4736842105264,15C607.0175438596491,14.791666666666666,614.0350877192982,39.791666666666664,631.578947368421,40C649.1228070175439,40.208333333333336,656.140350877193,14.333333333333334,673.6842105263158,16C691.2280701754387,17.666666666666668,698.2456140350878,47.375,715.7894736842106,48C733.3333333333335,48.625,740.3508771929826,18.791666666666668,757.8947368421053,19C775.438596491228,19.208333333333332,791.2280701754386,42.75,800,49" transform="matrix(1,0,0,1,0,896)"></path><path d="M10,10C16.68859649122807,12.916666666666668,26.644736842105264,28.375,42.10526315789474,24C57.56578947368422,19.625,66.66666666666667,-9.75,84.21052631578948,-11C101.75438596491229,-12.25,108.77192982456141,16.75,126.31578947368422,18C143.859649122807,19.25,150.87719298245617,-5.416666666666667,168.42105263157896,-5C185.96491228070175,-4.583333333333333,192.9824561403509,18.958333333333332,210.5263157894737,20C228.0701754385965,21.041666666666668,235.08771929824564,-1.0416666666666667,252.63157894736844,0C270.17543859649123,1.0416666666666667,277.1929824561404,26.041666666666668,294.7368421052632,25C312.280701754386,23.958333333333332,319.2982456140351,-6.875,336.8421052631579,-5C354.3859649122807,-3.125,361.40350877192986,32.75,378.94736842105266,34C396.49122807017545,35.25,403.5087719298246,-0.04166666666666674,421.0526315789474,1C438.5964912280702,2.041666666666667,445.61403508771934,38.791666666666664,463.15789473684214,39C480.70175438596493,39.208333333333336,487.7192982456141,1.5833333333333335,505.2631578947369,2C522.8070175438597,2.4166666666666665,529.8245614035088,38.291666666666664,547.3684210526317,41C564.9122807017545,43.708333333333336,571.9298245614036,15.208333333333334,589.4736842105264,15C607.0175438596491,14.791666666666666,614.0350877192982,39.791666666666664,631.578947368421,40C649.1228070175439,40.208333333333336,656.140350877193,14.333333333333334,673.6842105263158,16C691.2280701754387,17.666666666666668,698.2456140350878,47.375,715.7894736842106,48C733.3333333333335,48.625,740.3508771929826,18.791666666666668,757.8947368421053,19C775.438596491228,19.208333333333332,791.2280701754386,42.75,800,49" transform="matrix(1,0,0,1,0,864)"></path><path d="M10,10C16.68859649122807,12.916666666666668,26.644736842105264,28.375,42.10526315789474,24C57.56578947368422,19.625,66.66666666666667,-9.75,84.21052631578948,-11C101.75438596491229,-12.25,108.77192982456141,16.75,126.31578947368422,18C143.859649122807,19.25,150.87719298245617,-5.416666666666667,168.42105263157896,-5C185.96491228070175,-4.583333333333333,192.9824561403509,18.958333333333332,210.5263157894737,20C228.0701754385965,21.041666666666668,235.08771929824564,-1.0416666666666667,252.63157894736844,0C270.17543859649123,1.0416666666666667,277.1929824561404,26.041666666666668,294.7368421052632,25C312.280701754386,23.958333333333332,319.2982456140351,-6.875,336.8421052631579,-5C354.3859649122807,-3.125,361.40350877192986,32.75,378.94736842105266,34C396.49122807017545,35.25,403.5087719298246,-0.04166666666666674,421.0526315789474,1C438.5964912280702,2.041666666666667,445.61403508771934,38.791666666666664,463.15789473684214,39C480.70175438596493,39.208333333333336,487.7192982456141,1.5833333333333335,505.2631578947369,2C522.8070175438597,2.4166666666666665,529.8245614035088,38.291666666666664,547.3684210526317,41C564.9122807017545,43.708333333333336,571.9298245614036,15.208333333333334,589.4736842105264,15C607.0175438596491,14.791666666666666,614.0350877192982,39.791666666666664,631.578947368421,40C649.1228070175439,40.208333333333336,656.140350877193,14.333333333333334,673.6842105263158,16C691.2280701754387,17.666666666666668,698.2456140350878,47.375,715.7894736842106,48C733.3333333333335,48.625,740.3508771929826,18.791666666666668,757.8947368421053,19C775.438596491228,19.208333333333332,791.2280701754386,42.75,800,49" transform="matrix(1,0,0,1,0,832)"></path><path d="M10,10C16.68859649122807,12.916666666666668,26.644736842105264,28.375,42.10526315789474,24C57.56578947368422,19.625,66.66666666666667,-9.75,84.21052631578948,-11C101.75438596491229,-12.25,108.77192982456141,16.75,126.31578947368422,18C143.859649122807,19.25,150.87719298245617,-5.416666666666667,168.42105263157896,-5C185.96491228070175,-4.583333333333333,192.9824561403509,18.958333333333332,210.5263157894737,20C228.0701754385965,21.041666666666668,235.08771929824564,-1.0416666666666667,252.63157894736844,0C270.17543859649123,1.0416666666666667,277.1929824561404,26.041666666666668,294.7368421052632,25C312.280701754386,23.958333333333332,319.2982456140351,-6.875,336.8421052631579,-5C354.3859649122807,-3.125,361.40350877192986,32.75,378.94736842105266,34C396.49122807017545,35.25,403.5087719298246,-0.04166666666666674,421.0526315789474,1C438.5964912280702,2.041666666666667,445.61403508771934,38.791666666666664,463.15789473684214,39C480.70175438596493,39.208333333333336,487.7192982456141,1.5833333333333335,505.2631578947369,2C522.8070175438597,2.4166666666666665,529.8245614035088,38.291666666666664,547.3684210526317,41C564.9122807017545,43.708333333333336,571.9298245614036,15.208333333333334,589.4736842105264,15C607.0175438596491,14.791666666666666,614.0350877192982,39.791666666666664,631.578947368421,40C649.1228070175439,40.208333333333336,656.140350877193,14.333333333333334,673.6842105263158,16C691.2280701754387,17.666666666666668,698.2456140350878,47.375,715.7894736842106,48C733.3333333333335,48.625,740.3508771929826,18.791666666666668,757.8947368421053,19C775.438596491228,19.208333333333332,791.2280701754386,42.75,800,49" transform="matrix(1,0,0,1,0,800)"></path><path d="M10,10C16.68859649122807,12.916666666666668,26.644736842105264,28.375,42.10526315789474,24C57.56578947368422,19.625,66.66666666666667,-9.75,84.21052631578948,-11C101.75438596491229,-12.25,108.77192982456141,16.75,126.31578947368422,18C143.859649122807,19.25,150.87719298245617,-5.416666666666667,168.42105263157896,-5C185.96491228070175,-4.583333333333333,192.9824561403509,18.958333333333332,210.5263157894737,20C228.0701754385965,21.041666666666668,235.08771929824564,-1.0416666666666667,252.63157894736844,0C270.17543859649123,1.0416666666666667,277.1929824561404,26.041666666666668,294.7368421052632,25C312.280701754386,23.958333333333332,319.2982456140351,-6.875,336.8421052631579,-5C354.3859649122807,-3.125,361.40350877192986,32.75,378.94736842105266,34C396.49122807017545,35.25,403.5087719298246,-0.04166666666666674,421.0526315789474,1C438.5964912280702,2.041666666666667,445.61403508771934,38.791666666666664,463.15789473684214,39C480.70175438596493,39.208333333333336,487.7192982456141,1.5833333333333335,505.2631578947369,2C522.8070175438597,2.4166666666666665,529.8245614035088,38.291666666666664,547.3684210526317,41C564.9122807017545,43.708333333333336,571.9298245614036,15.208333333333334,589.4736842105264,15C607.0175438596491,14.791666666666666,614.0350877192982,39.791666666666664,631.578947368421,40C649.1228070175439,40.208333333333336,656.140350877193,14.333333333333334,673.6842105263158,16C691.2280701754387,17.666666666666668,698.2456140350878,47.375,715.7894736842106,48C733.3333333333335,48.625,740.3508771929826,18.791666666666668,757.8947368421053,19C775.438596491228,19.208333333333332,791.2280701754386,42.75,800,49" transform="matrix(1,0,0,1,0,768)"></path><path d="M10,10C16.68859649122807,12.916666666666668,26.644736842105264,28.375,42.10526315789474,24C57.56578947368422,19.625,66.66666666666667,-9.75,84.21052631578948,-11C101.75438596491229,-12.25,108.77192982456141,16.75,126.31578947368422,18C143.859649122807,19.25,150.87719298245617,-5.416666666666667,168.42105263157896,-5C185.96491228070175,-4.583333333333333,192.9824561403509,18.958333333333332,210.5263157894737,20C228.0701754385965,21.041666666666668,235.08771929824564,-1.0416666666666667,252.63157894736844,0C270.17543859649123,1.0416666666666667,277.1929824561404,26.041666666666668,294.7368421052632,25C312.280701754386,23.958333333333332,319.2982456140351,-6.875,336.8421052631579,-5C354.3859649122807,-3.125,361.40350877192986,32.75,378.94736842105266,34C396.49122807017545,35.25,403.5087719298246,-0.04166666666666674,421.0526315789474,1C438.5964912280702,2.041666666666667,445.61403508771934,38.791666666666664,463.15789473684214,39C480.70175438596493,39.208333333333336,487.7192982456141,1.5833333333333335,505.2631578947369,2C522.8070175438597,2.4166666666666665,529.8245614035088,38.291666666666664,547.3684210526317,41C564.9122807017545,43.708333333333336,571.9298245614036,15.208333333333334,589.4736842105264,15C607.0175438596491,14.791666666666666,614.0350877192982,39.791666666666664,631.578947368421,40C649.1228070175439,40.208333333333336,656.140350877193,14.333333333333334,673.6842105263158,16C691.2280701754387,17.666666666666668,698.2456140350878,47.375,715.7894736842106,48C733.3333333333335,48.625,740.3508771929826,18.791666666666668,757.8947368421053,19C775.438596491228,19.208333333333332,791.2280701754386,42.75,800,49" transform="matrix(1,0,0,1,0,736)"></path><path d="M10,10C16.68859649122807,12.916666666666668,26.644736842105264,28.375,42.10526315789474,24C57.56578947368422,19.625,66.66666666666667,-9.75,84.21052631578948,-11C101.75438596491229,-12.25,108.77192982456141,16.75,126.31578947368422,18C143.859649122807,19.25,150.87719298245617,-5.416666666666667,168.42105263157896,-5C185.96491228070175,-4.583333333333333,192.9824561403509,18.958333333333332,210.5263157894737,20C228.0701754385965,21.041666666666668,235.08771929824564,-1.0416666666666667,252.63157894736844,0C270.17543859649123,1.0416666666666667,277.1929824561404,26.041666666666668,294.7368421052632,25C312.280701754386,23.958333333333332,319.2982456140351,-6.875,336.8421052631579,-5C354.3859649122807,-3.125,361.40350877192986,32.75,378.94736842105266,34C396.49122807017545,35.25,403.5087719298246,-0.04166666666666674,421.0526315789474,1C438.5964912280702,2.041666666666667,445.61403508771934,38.791666666666664,463.15789473684214,39C480.70175438596493,39.208333333333336,487.7192982456141,1.5833333333333335,505.2631578947369,2C522.8070175438597,2.4166666666666665,529.8245614035088,38.291666666666664,547.3684210526317,41C564.9122807017545,43.708333333333336,571.9298245614036,15.208333333333334,589.4736842105264,15C607.0175438596491,14.791666666666666,614.0350877192982,39.791666666666664,631.578947368421,40C649.1228070175439,40.208333333333336,656.140350877193,14.333333333333334,673.6842105263158,16C691.2280701754387,17.666666666666668,698.2456140350878,47.375,715.7894736842106,48C733.3333333333335,48.625,740.3508771929826,18.791666666666668,757.8947368421053,19C775.438596491228,19.208333333333332,791.2280701754386,42.75,800,49" transform="matrix(1,0,0,1,0,704)"></path><path d="M10,10C16.68859649122807,12.916666666666668,26.644736842105264,28.375,42.10526315789474,24C57.56578947368422,19.625,66.66666666666667,-9.75,84.21052631578948,-11C101.75438596491229,-12.25,108.77192982456141,16.75,126.31578947368422,18C143.859649122807,19.25,150.87719298245617,-5.416666666666667,168.42105263157896,-5C185.96491228070175,-4.583333333333333,192.9824561403509,18.958333333333332,210.5263157894737,20C228.0701754385965,21.041666666666668,235.08771929824564,-1.0416666666666667,252.63157894736844,0C270.17543859649123,1.0416666666666667,277.1929824561404,26.041666666666668,294.7368421052632,25C312.280701754386,23.958333333333332,319.2982456140351,-6.875,336.8421052631579,-5C354.3859649122807,-3.125,361.40350877192986,32.75,378.94736842105266,34C396.49122807017545,35.25,403.5087719298246,-0.04166666666666674,421.0526315789474,1C438.5964912280702,2.041666666666667,445.61403508771934,38.791666666666664,463.15789473684214,39C480.70175438596493,39.208333333333336,487.7192982456141,1.5833333333333335,505.2631578947369,2C522.8070175438597,2.4166666666666665,529.8245614035088,38.291666666666664,547.3684210526317,41C564.9122807017545,43.708333333333336,571.9298245614036,15.208333333333334,589.4736842105264,15C607.0175438596491,14.791666666666666,614.0350877192982,39.791666666666664,631.578947368421,40C649.1228070175439,40.208333333333336,656.140350877193,14.333333333333334,673.6842105263158,16C691.2280701754387,17.666666666666668,698.2456140350878,47.375,715.7894736842106,48C733.3333333333335,48.625,740.3508771929826,18.791666666666668,757.8947368421053,19C775.438596491228,19.208333333333332,791.2280701754386,42.75,800,49" transform="matrix(1,0,0,1,0,672)"></path><path d="M10,10C16.68859649122807,12.916666666666668,26.644736842105264,28.375,42.10526315789474,24C57.56578947368422,19.625,66.66666666666667,-9.75,84.21052631578948,-11C101.75438596491229,-12.25,108.77192982456141,16.75,126.31578947368422,18C143.859649122807,19.25,150.87719298245617,-5.416666666666667,168.42105263157896,-5C185.96491228070175,-4.583333333333333,192.9824561403509,18.958333333333332,210.5263157894737,20C228.0701754385965,21.041666666666668,235.08771929824564,-1.0416666666666667,252.63157894736844,0C270.17543859649123,1.0416666666666667,277.1929824561404,26.041666666666668,294.7368421052632,25C312.280701754386,23.958333333333332,319.2982456140351,-6.875,336.8421052631579,-5C354.3859649122807,-3.125,361.40350877192986,32.75,378.94736842105266,34C396.49122807017545,35.25,403.5087719298246,-0.04166666666666674,421.0526315789474,1C438.5964912280702,2.041666666666667,445.61403508771934,38.791666666666664,463.15789473684214,39C480.70175438596493,39.208333333333336,487.7192982456141,1.5833333333333335,505.2631578947369,2C522.8070175438597,2.4166666666666665,529.8245614035088,38.291666666666664,547.3684210526317,41C564.9122807017545,43.708333333333336,571.9298245614036,15.208333333333334,589.4736842105264,15C607.0175438596491,14.791666666666666,614.0350877192982,39.791666666666664,631.578947368421,40C649.1228070175439,40.208333333333336,656.140350877193,14.333333333333334,673.6842105263158,16C691.2280701754387,17.666666666666668,698.2456140350878,47.375,715.7894736842106,48C733.3333333333335,48.625,740.3508771929826,18.791666666666668,757.8947368421053,19C775.438596491228,19.208333333333332,791.2280701754386,42.75,800,49" transform="matrix(1,0,0,1,0,640)"></path><path d="M10,10C16.68859649122807,12.916666666666668,26.644736842105264,28.375,42.10526315789474,24C57.56578947368422,19.625,66.66666666666667,-9.75,84.21052631578948,-11C101.75438596491229,-12.25,108.77192982456141,16.75,126.31578947368422,18C143.859649122807,19.25,150.87719298245617,-5.416666666666667,168.42105263157896,-5C185.96491228070175,-4.583333333333333,192.9824561403509,18.958333333333332,210.5263157894737,20C228.0701754385965,21.041666666666668,235.08771929824564,-1.0416666666666667,252.63157894736844,0C270.17543859649123,1.0416666666666667,277.1929824561404,26.041666666666668,294.7368421052632,25C312.280701754386,23.958333333333332,319.2982456140351,-6.875,336.8421052631579,-5C354.3859649122807,-3.125,361.40350877192986,32.75,378.94736842105266,34C396.49122807017545,35.25,403.5087719298246,-0.04166666666666674,421.0526315789474,1C438.5964912280702,2.041666666666667,445.61403508771934,38.791666666666664,463.15789473684214,39C480.70175438596493,39.208333333333336,487.7192982456141,1.5833333333333335,505.2631578947369,2C522.8070175438597,2.4166666666666665,529.8245614035088,38.291666666666664,547.3684210526317,41C564.9122807017545,43.708333333333336,571.9298245614036,15.208333333333334,589.4736842105264,15C607.0175438596491,14.791666666666666,614.0350877192982,39.791666666666664,631.578947368421,40C649.1228070175439,40.208333333333336,656.140350877193,14.333333333333334,673.6842105263158,16C691.2280701754387,17.666666666666668,698.2456140350878,47.375,715.7894736842106,48C733.3333333333335,48.625,740.3508771929826,18.791666666666668,757.8947368421053,19C775.438596491228,19.208333333333332,791.2280701754386,42.75,800,49" transform="matrix(1,0,0,1,0,608)"></path><path d="M10,10C16.68859649122807,12.916666666666668,26.644736842105264,28.375,42.10526315789474,24C57.56578947368422,19.625,66.66666666666667,-9.75,84.21052631578948,-11C101.75438596491229,-12.25,108.77192982456141,16.75,126.31578947368422,18C143.859649122807,19.25,150.87719298245617,-5.416666666666667,168.42105263157896,-5C185.96491228070175,-4.583333333333333,192.9824561403509,18.958333333333332,210.5263157894737,20C228.0701754385965,21.041666666666668,235.08771929824564,-1.0416666666666667,252.63157894736844,0C270.17543859649123,1.0416666666666667,277.1929824561404,26.041666666666668,294.7368421052632,25C312.280701754386,23.958333333333332,319.2982456140351,-6.875,336.8421052631579,-5C354.3859649122807,-3.125,361.40350877192986,32.75,378.94736842105266,34C396.49122807017545,35.25,403.5087719298246,-0.04166666666666674,421.0526315789474,1C438.5964912280702,2.041666666666667,445.61403508771934,38.791666666666664,463.15789473684214,39C480.70175438596493,39.208333333333336,487.7192982456141,1.5833333333333335,505.2631578947369,2C522.8070175438597,2.4166666666666665,529.8245614035088,38.291666666666664,547.3684210526317,41C564.9122807017545,43.708333333333336,571.9298245614036,15.208333333333334,589.4736842105264,15C607.0175438596491,14.791666666666666,614.0350877192982,39.791666666666664,631.578947368421,40C649.1228070175439,40.208333333333336,656.140350877193,14.333333333333334,673.6842105263158,16C691.2280701754387,17.666666666666668,698.2456140350878,47.375,715.7894736842106,48C733.3333333333335,48.625,740.3508771929826,18.791666666666668,757.8947368421053,19C775.438596491228,19.208333333333332,791.2280701754386,42.75,800,49" transform="matrix(1,0,0,1,0,576)"></path><path d="M10,10C16.68859649122807,12.916666666666668,26.644736842105264,28.375,42.10526315789474,24C57.56578947368422,19.625,66.66666666666667,-9.75,84.21052631578948,-11C101.75438596491229,-12.25,108.77192982456141,16.75,126.31578947368422,18C143.859649122807,19.25,150.87719298245617,-5.416666666666667,168.42105263157896,-5C185.96491228070175,-4.583333333333333,192.9824561403509,18.958333333333332,210.5263157894737,20C228.0701754385965,21.041666666666668,235.08771929824564,-1.0416666666666667,252.63157894736844,0C270.17543859649123,1.0416666666666667,277.1929824561404,26.041666666666668,294.7368421052632,25C312.280701754386,23.958333333333332,319.2982456140351,-6.875,336.8421052631579,-5C354.3859649122807,-3.125,361.40350877192986,32.75,378.94736842105266,34C396.49122807017545,35.25,403.5087719298246,-0.04166666666666674,421.0526315789474,1C438.5964912280702,2.041666666666667,445.61403508771934,38.791666666666664,463.15789473684214,39C480.70175438596493,39.208333333333336,487.7192982456141,1.5833333333333335,505.2631578947369,2C522.8070175438597,2.4166666666666665,529.8245614035088,38.291666666666664,547.3684210526317,41C564.9122807017545,43.708333333333336,571.9298245614036,15.208333333333334,589.4736842105264,15C607.0175438596491,14.791666666666666,614.0350877192982,39.791666666666664,631.578947368421,40C649.1228070175439,40.208333333333336,656.140350877193,14.333333333333334,673.6842105263158,16C691.2280701754387,17.666666666666668,698.2456140350878,47.375,715.7894736842106,48C733.3333333333335,48.625,740.3508771929826,18.791666666666668,757.8947368421053,19C775.438596491228,19.208333333333332,791.2280701754386,42.75,800,49" transform="matrix(1,0,0,1,0,544)"></path><path d="M10,10C16.68859649122807,12.916666666666668,26.644736842105264,28.375,42.10526315789474,24C57.56578947368422,19.625,66.66666666666667,-9.75,84.21052631578948,-11C101.75438596491229,-12.25,108.77192982456141,16.75,126.31578947368422,18C143.859649122807,19.25,150.87719298245617,-5.416666666666667,168.42105263157896,-5C185.96491228070175,-4.583333333333333,192.9824561403509,18.958333333333332,210.5263157894737,20C228.0701754385965,21.041666666666668,235.08771929824564,-1.0416666666666667,252.63157894736844,0C270.17543859649123,1.0416666666666667,277.1929824561404,26.041666666666668,294.7368421052632,25C312.280701754386,23.958333333333332,319.2982456140351,-6.875,336.8421052631579,-5C354.3859649122807,-3.125,361.40350877192986,32.75,378.94736842105266,34C396.49122807017545,35.25,403.5087719298246,-0.04166666666666674,421.0526315789474,1C438.5964912280702,2.041666666666667,445.61403508771934,38.791666666666664,463.15789473684214,39C480.70175438596493,39.208333333333336,487.7192982456141,1.5833333333333335,505.2631578947369,2C522.8070175438597,2.4166666666666665,529.8245614035088,38.291666666666664,547.3684210526317,41C564.9122807017545,43.708333333333336,571.9298245614036,15.208333333333334,589.4736842105264,15C607.0175438596491,14.791666666666666,614.0350877192982,39.791666666666664,631.578947368421,40C649.1228070175439,40.208333333333336,656.140350877193,14.333333333333334,673.6842105263158,16C691.2280701754387,17.666666666666668,698.2456140350878,47.375,715.7894736842106,48C733.3333333333335,48.625,740.3508771929826,18.791666666666668,757.8947368421053,19C775.438596491228,19.208333333333332,791.2280701754386,42.75,800,49" transform="matrix(1,0,0,1,0,512)"></path><path d="M10,10C16.68859649122807,12.916666666666668,26.644736842105264,28.375,42.10526315789474,24C57.56578947368422,19.625,66.66666666666667,-9.75,84.21052631578948,-11C101.75438596491229,-12.25,108.77192982456141,16.75,126.31578947368422,18C143.859649122807,19.25,150.87719298245617,-5.416666666666667,168.42105263157896,-5C185.96491228070175,-4.583333333333333,192.9824561403509,18.958333333333332,210.5263157894737,20C228.0701754385965,21.041666666666668,235.08771929824564,-1.0416666666666667,252.63157894736844,0C270.17543859649123,1.0416666666666667,277.1929824561404,26.041666666666668,294.7368421052632,25C312.280701754386,23.958333333333332,319.2982456140351,-6.875,336.8421052631579,-5C354.3859649122807,-3.125,361.40350877192986,32.75,378.94736842105266,34C396.49122807017545,35.25,403.5087719298246,-0.04166666666666674,421.0526315789474,1C438.5964912280702,2.041666666666667,445.61403508771934,38.791666666666664,463.15789473684214,39C480.70175438596493,39.208333333333336,487.7192982456141,1.5833333333333335,505.2631578947369,2C522.8070175438597,2.4166666666666665,529.8245614035088,38.291666666666664,547.3684210526317,41C564.9122807017545,43.708333333333336,571.9298245614036,15.208333333333334,589.4736842105264,15C607.0175438596491,14.791666666666666,614.0350877192982,39.791666666666664,631.578947368421,40C649.1228070175439,40.208333333333336,656.140350877193,14.333333333333334,673.6842105263158,16C691.2280701754387,17.666666666666668,698.2456140350878,47.375,715.7894736842106,48C733.3333333333335,48.625,740.3508771929826,18.791666666666668,757.8947368421053,19C775.438596491228,19.208333333333332,791.2280701754386,42.75,800,49" transform="matrix(1,0,0,1,0,480)"></path><path d="M10,10C16.68859649122807,12.916666666666668,26.644736842105264,28.375,42.10526315789474,24C57.56578947368422,19.625,66.66666666666667,-9.75,84.21052631578948,-11C101.75438596491229,-12.25,108.77192982456141,16.75,126.31578947368422,18C143.859649122807,19.25,150.87719298245617,-5.416666666666667,168.42105263157896,-5C185.96491228070175,-4.583333333333333,192.9824561403509,18.958333333333332,210.5263157894737,20C228.0701754385965,21.041666666666668,235.08771929824564,-1.0416666666666667,252.63157894736844,0C270.17543859649123,1.0416666666666667,277.1929824561404,26.041666666666668,294.7368421052632,25C312.280701754386,23.958333333333332,319.2982456140351,-6.875,336.8421052631579,-5C354.3859649122807,-3.125,361.40350877192986,32.75,378.94736842105266,34C396.49122807017545,35.25,403.5087719298246,-0.04166666666666674,421.0526315789474,1C438.5964912280702,2.041666666666667,445.61403508771934,38.791666666666664,463.15789473684214,39C480.70175438596493,39.208333333333336,487.7192982456141,1.5833333333333335,505.2631578947369,2C522.8070175438597,2.4166666666666665,529.8245614035088,38.291666666666664,547.3684210526317,41C564.9122807017545,43.708333333333336,571.9298245614036,15.208333333333334,589.4736842105264,15C607.0175438596491,14.791666666666666,614.0350877192982,39.791666666666664,631.578947368421,40C649.1228070175439,40.208333333333336,656.140350877193,14.333333333333334,673.6842105263158,16C691.2280701754387,17.666666666666668,698.2456140350878,47.375,715.7894736842106,48C733.3333333333335,48.625,740.3508771929826,18.791666666666668,757.8947368421053,19C775.438596491228,19.208333333333332,791.2280701754386,42.75,800,49" transform="matrix(1,0,0,1,0,448)"></path><path d="M10,10C16.68859649122807,12.916666666666668,26.644736842105264,28.375,42.10526315789474,24C57.56578947368422,19.625,66.66666666666667,-9.75,84.21052631578948,-11C101.75438596491229,-12.25,108.77192982456141,16.75,126.31578947368422,18C143.859649122807,19.25,150.87719298245617,-5.416666666666667,168.42105263157896,-5C185.96491228070175,-4.583333333333333,192.9824561403509,18.958333333333332,210.5263157894737,20C228.0701754385965,21.041666666666668,235.08771929824564,-1.0416666666666667,252.63157894736844,0C270.17543859649123,1.0416666666666667,277.1929824561404,26.041666666666668,294.7368421052632,25C312.280701754386,23.958333333333332,319.2982456140351,-6.875,336.8421052631579,-5C354.3859649122807,-3.125,361.40350877192986,32.75,378.94736842105266,34C396.49122807017545,35.25,403.5087719298246,-0.04166666666666674,421.0526315789474,1C438.5964912280702,2.041666666666667,445.61403508771934,38.791666666666664,463.15789473684214,39C480.70175438596493,39.208333333333336,487.7192982456141,1.5833333333333335,505.2631578947369,2C522.8070175438597,2.4166666666666665,529.8245614035088,38.291666666666664,547.3684210526317,41C564.9122807017545,43.708333333333336,571.9298245614036,15.208333333333334,589.4736842105264,15C607.0175438596491,14.791666666666666,614.0350877192982,39.791666666666664,631.578947368421,40C649.1228070175439,40.208333333333336,656.140350877193,14.333333333333334,673.6842105263158,16C691.2280701754387,17.666666666666668,698.2456140350878,47.375,715.7894736842106,48C733.3333333333335,48.625,740.3508771929826,18.791666666666668,757.8947368421053,19C775.438596491228,19.208333333333332,791.2280701754386,42.75,800,49" transform="matrix(1,0,0,1,0,416)"></path><path d="M10,10C16.68859649122807,12.916666666666668,26.644736842105264,28.375,42.10526315789474,24C57.56578947368422,19.625,66.66666666666667,-9.75,84.21052631578948,-11C101.75438596491229,-12.25,108.77192982456141,16.75,126.31578947368422,18C143.859649122807,19.25,150.87719298245617,-5.416666666666667,168.42105263157896,-5C185.96491228070175,-4.583333333333333,192.9824561403509,18.958333333333332,210.5263157894737,20C228.0701754385965,21.041666666666668,235.08771929824564,-1.0416666666666667,252.63157894736844,0C270.17543859649123,1.0416666666666667,277.1929824561404,26.041666666666668,294.7368421052632,25C312.280701754386,23.958333333333332,319.2982456140351,-6.875,336.8421052631579,-5C354.3859649122807,-3.125,361.40350877192986,32.75,378.94736842105266,34C396.49122807017545,35.25,403.5087719298246,-0.04166666666666674,421.0526315789474,1C438.5964912280702,2.041666666666667,445.61403508771934,38.791666666666664,463.15789473684214,39C480.70175438596493,39.208333333333336,487.7192982456141,1.5833333333333335,505.2631578947369,2C522.8070175438597,2.4166666666666665,529.8245614035088,38.291666666666664,547.3684210526317,41C564.9122807017545,43.708333333333336,571.9298245614036,15.208333333333334,589.4736842105264,15C607.0175438596491,14.791666666666666,614.0350877192982,39.791666666666664,631.578947368421,40C649.1228070175439,40.208333333333336,656.140350877193,14.333333333333334,673.6842105263158,16C691.2280701754387,17.666666666666668,698.2456140350878,47.375,715.7894736842106,48C733.3333333333335,48.625,740.3508771929826,18.791666666666668,757.8947368421053,19C775.438596491228,19.208333333333332,791.2280701754386,42.75,800,49" transform="matrix(1,0,0,1,0,384)"></path><path d="M10,10C16.68859649122807,12.916666666666668,26.644736842105264,28.375,42.10526315789474,24C57.56578947368422,19.625,66.66666666666667,-9.75,84.21052631578948,-11C101.75438596491229,-12.25,108.77192982456141,16.75,126.31578947368422,18C143.859649122807,19.25,150.87719298245617,-5.416666666666667,168.42105263157896,-5C185.96491228070175,-4.583333333333333,192.9824561403509,18.958333333333332,210.5263157894737,20C228.0701754385965,21.041666666666668,235.08771929824564,-1.0416666666666667,252.63157894736844,0C270.17543859649123,1.0416666666666667,277.1929824561404,26.041666666666668,294.7368421052632,25C312.280701754386,23.958333333333332,319.2982456140351,-6.875,336.8421052631579,-5C354.3859649122807,-3.125,361.40350877192986,32.75,378.94736842105266,34C396.49122807017545,35.25,403.5087719298246,-0.04166666666666674,421.0526315789474,1C438.5964912280702,2.041666666666667,445.61403508771934,38.791666666666664,463.15789473684214,39C480.70175438596493,39.208333333333336,487.7192982456141,1.5833333333333335,505.2631578947369,2C522.8070175438597,2.4166666666666665,529.8245614035088,38.291666666666664,547.3684210526317,41C564.9122807017545,43.708333333333336,571.9298245614036,15.208333333333334,589.4736842105264,15C607.0175438596491,14.791666666666666,614.0350877192982,39.791666666666664,631.578947368421,40C649.1228070175439,40.208333333333336,656.140350877193,14.333333333333334,673.6842105263158,16C691.2280701754387,17.666666666666668,698.2456140350878,47.375,715.7894736842106,48C733.3333333333335,48.625,740.3508771929826,18.791666666666668,757.8947368421053,19C775.438596491228,19.208333333333332,791.2280701754386,42.75,800,49" transform="matrix(1,0,0,1,0,352)"></path><path d="M10,10C16.68859649122807,12.916666666666668,26.644736842105264,28.375,42.10526315789474,24C57.56578947368422,19.625,66.66666666666667,-9.75,84.21052631578948,-11C101.75438596491229,-12.25,108.77192982456141,16.75,126.31578947368422,18C143.859649122807,19.25,150.87719298245617,-5.416666666666667,168.42105263157896,-5C185.96491228070175,-4.583333333333333,192.9824561403509,18.958333333333332,210.5263157894737,20C228.0701754385965,21.041666666666668,235.08771929824564,-1.0416666666666667,252.63157894736844,0C270.17543859649123,1.0416666666666667,277.1929824561404,26.041666666666668,294.7368421052632,25C312.280701754386,23.958333333333332,319.2982456140351,-6.875,336.8421052631579,-5C354.3859649122807,-3.125,361.40350877192986,32.75,378.94736842105266,34C396.49122807017545,35.25,403.5087719298246,-0.04166666666666674,421.0526315789474,1C438.5964912280702,2.041666666666667,445.61403508771934,38.791666666666664,463.15789473684214,39C480.70175438596493,39.208333333333336,487.7192982456141,1.5833333333333335,505.2631578947369,2C522.8070175438597,2.4166666666666665,529.8245614035088,38.291666666666664,547.3684210526317,41C564.9122807017545,43.708333333333336,571.9298245614036,15.208333333333334,589.4736842105264,15C607.0175438596491,14.791666666666666,614.0350877192982,39.791666666666664,631.578947368421,40C649.1228070175439,40.208333333333336,656.140350877193,14.333333333333334,673.6842105263158,16C691.2280701754387,17.666666666666668,698.2456140350878,47.375,715.7894736842106,48C733.3333333333335,48.625,740.3508771929826,18.791666666666668,757.8947368421053,19C775.438596491228,19.208333333333332,791.2280701754386,42.75,800,49" transform="matrix(1,0,0,1,0,320)"></path><path d="M10,10C16.68859649122807,12.916666666666668,26.644736842105264,28.375,42.10526315789474,24C57.56578947368422,19.625,66.66666666666667,-9.75,84.21052631578948,-11C101.75438596491229,-12.25,108.77192982456141,16.75,126.31578947368422,18C143.859649122807,19.25,150.87719298245617,-5.416666666666667,168.42105263157896,-5C185.96491228070175,-4.583333333333333,192.9824561403509,18.958333333333332,210.5263157894737,20C228.0701754385965,21.041666666666668,235.08771929824564,-1.0416666666666667,252.63157894736844,0C270.17543859649123,1.0416666666666667,277.1929824561404,26.041666666666668,294.7368421052632,25C312.280701754386,23.958333333333332,319.2982456140351,-6.875,336.8421052631579,-5C354.3859649122807,-3.125,361.40350877192986,32.75,378.94736842105266,34C396.49122807017545,35.25,403.5087719298246,-0.04166666666666674,421.0526315789474,1C438.5964912280702,2.041666666666667,445.61403508771934,38.791666666666664,463.15789473684214,39C480.70175438596493,39.208333333333336,487.7192982456141,1.5833333333333335,505.2631578947369,2C522.8070175438597,2.4166666666666665,529.8245614035088,38.291666666666664,547.3684210526317,41C564.9122807017545,43.708333333333336,571.9298245614036,15.208333333333334,589.4736842105264,15C607.0175438596491,14.791666666666666,614.0350877192982,39.791666666666664,631.578947368421,40C649.1228070175439,40.208333333333336,656.140350877193,14.333333333333334,673.6842105263158,16C691.2280701754387,17.666666666666668,698.2456140350878,47.375,715.7894736842106,48C733.3333333333335,48.625,740.3508771929826,18.791666666666668,757.8947368421053,19C775.438596491228,19.208333333333332,791.2280701754386,42.75,800,49" transform="matrix(1,0,0,1,0,288)"></path><path d="M10,10C16.68859649122807,12.916666666666668,26.644736842105264,28.375,42.10526315789474,24C57.56578947368422,19.625,66.66666666666667,-9.75,84.21052631578948,-11C101.75438596491229,-12.25,108.77192982456141,16.75,126.31578947368422,18C143.859649122807,19.25,150.87719298245617,-5.416666666666667,168.42105263157896,-5C185.96491228070175,-4.583333333333333,192.9824561403509,18.958333333333332,210.5263157894737,20C228.0701754385965,21.041666666666668,235.08771929824564,-1.0416666666666667,252.63157894736844,0C270.17543859649123,1.0416666666666667,277.1929824561404,26.041666666666668,294.7368421052632,25C312.280701754386,23.958333333333332,319.2982456140351,-6.875,336.8421052631579,-5C354.3859649122807,-3.125,361.40350877192986,32.75,378.94736842105266,34C396.49122807017545,35.25,403.5087719298246,-0.04166666666666674,421.0526315789474,1C438.5964912280702,2.041666666666667,445.61403508771934,38.791666666666664,463.15789473684214,39C480.70175438596493,39.208333333333336,487.7192982456141,1.5833333333333335,505.2631578947369,2C522.8070175438597,2.4166666666666665,529.8245614035088,38.291666666666664,547.3684210526317,41C564.9122807017545,43.708333333333336,571.9298245614036,15.208333333333334,589.4736842105264,15C607.0175438596491,14.791666666666666,614.0350877192982,39.791666666666664,631.578947368421,40C649.1228070175439,40.208333333333336,656.140350877193,14.333333333333334,673.6842105263158,16C691.2280701754387,17.666666666666668,698.2456140350878,47.375,715.7894736842106,48C733.3333333333335,48.625,740.3508771929826,18.791666666666668,757.8947368421053,19C775.438596491228,19.208333333333332,791.2280701754386,42.75,800,49" transform="matrix(1,0,0,1,0,256)"></path><path d="M10,10C16.68859649122807,12.916666666666668,26.644736842105264,28.375,42.10526315789474,24C57.56578947368422,19.625,66.66666666666667,-9.75,84.21052631578948,-11C101.75438596491229,-12.25,108.77192982456141,16.75,126.31578947368422,18C143.859649122807,19.25,150.87719298245617,-5.416666666666667,168.42105263157896,-5C185.96491228070175,-4.583333333333333,192.9824561403509,18.958333333333332,210.5263157894737,20C228.0701754385965,21.041666666666668,235.08771929824564,-1.0416666666666667,252.63157894736844,0C270.17543859649123,1.0416666666666667,277.1929824561404,26.041666666666668,294.7368421052632,25C312.280701754386,23.958333333333332,319.2982456140351,-6.875,336.8421052631579,-5C354.3859649122807,-3.125,361.40350877192986,32.75,378.94736842105266,34C396.49122807017545,35.25,403.5087719298246,-0.04166666666666674,421.0526315789474,1C438.5964912280702,2.041666666666667,445.61403508771934,38.791666666666664,463.15789473684214,39C480.70175438596493,39.208333333333336,487.7192982456141,1.5833333333333335,505.2631578947369,2C522.8070175438597,2.4166666666666665,529.8245614035088,38.291666666666664,547.3684210526317,41C564.9122807017545,43.708333333333336,571.9298245614036,15.208333333333334,589.4736842105264,15C607.0175438596491,14.791666666666666,614.0350877192982,39.791666666666664,631.578947368421,40C649.1228070175439,40.208333333333336,656.140350877193,14.333333333333334,673.6842105263158,16C691.2280701754387,17.666666666666668,698.2456140350878,47.375,715.7894736842106,48C733.3333333333335,48.625,740.3508771929826,18.791666666666668,757.8947368421053,19C775.438596491228,19.208333333333332,791.2280701754386,42.75,800,49" transform="matrix(1,0,0,1,0,224)"></path><path d="M10,10C16.68859649122807,12.916666666666668,26.644736842105264,28.375,42.10526315789474,24C57.56578947368422,19.625,66.66666666666667,-9.75,84.21052631578948,-11C101.75438596491229,-12.25,108.77192982456141,16.75,126.31578947368422,18C143.859649122807,19.25,150.87719298245617,-5.416666666666667,168.42105263157896,-5C185.96491228070175,-4.583333333333333,192.9824561403509,18.958333333333332,210.5263157894737,20C228.0701754385965,21.041666666666668,235.08771929824564,-1.0416666666666667,252.63157894736844,0C270.17543859649123,1.0416666666666667,277.1929824561404,26.041666666666668,294.7368421052632,25C312.280701754386,23.958333333333332,319.2982456140351,-6.875,336.8421052631579,-5C354.3859649122807,-3.125,361.40350877192986,32.75,378.94736842105266,34C396.49122807017545,35.25,403.5087719298246,-0.04166666666666674,421.0526315789474,1C438.5964912280702,2.041666666666667,445.61403508771934,38.791666666666664,463.15789473684214,39C480.70175438596493,39.208333333333336,487.7192982456141,1.5833333333333335,505.2631578947369,2C522.8070175438597,2.4166666666666665,529.8245614035088,38.291666666666664,547.3684210526317,41C564.9122807017545,43.708333333333336,571.9298245614036,15.208333333333334,589.4736842105264,15C607.0175438596491,14.791666666666666,614.0350877192982,39.791666666666664,631.578947368421,40C649.1228070175439,40.208333333333336,656.140350877193,14.333333333333334,673.6842105263158,16C691.2280701754387,17.666666666666668,698.2456140350878,47.375,715.7894736842106,48C733.3333333333335,48.625,740.3508771929826,18.791666666666668,757.8947368421053,19C775.438596491228,19.208333333333332,791.2280701754386,42.75,800,49" transform="matrix(1,0,0,1,0,192)"></path><path d="M10,10C16.68859649122807,12.916666666666668,26.644736842105264,28.375,42.10526315789474,24C57.56578947368422,19.625,66.66666666666667,-9.75,84.21052631578948,-11C101.75438596491229,-12.25,108.77192982456141,16.75,126.31578947368422,18C143.859649122807,19.25,150.87719298245617,-5.416666666666667,168.42105263157896,-5C185.96491228070175,-4.583333333333333,192.9824561403509,18.958333333333332,210.5263157894737,20C228.0701754385965,21.041666666666668,235.08771929824564,-1.0416666666666667,252.63157894736844,0C270.17543859649123,1.0416666666666667,277.1929824561404,26.041666666666668,294.7368421052632,25C312.280701754386,23.958333333333332,319.2982456140351,-6.875,336.8421052631579,-5C354.3859649122807,-3.125,361.40350877192986,32.75,378.94736842105266,34C396.49122807017545,35.25,403.5087719298246,-0.04166666666666674,421.0526315789474,1C438.5964912280702,2.041666666666667,445.61403508771934,38.791666666666664,463.15789473684214,39C480.70175438596493,39.208333333333336,487.7192982456141,1.5833333333333335,505.2631578947369,2C522.8070175438597,2.4166666666666665,529.8245614035088,38.291666666666664,547.3684210526317,41C564.9122807017545,43.708333333333336,571.9298245614036,15.208333333333334,589.4736842105264,15C607.0175438596491,14.791666666666666,614.0350877192982,39.791666666666664,631.578947368421,40C649.1228070175439,40.208333333333336,656.140350877193,14.333333333333334,673.6842105263158,16C691.2280701754387,17.666666666666668,698.2456140350878,47.375,715.7894736842106,48C733.3333333333335,48.625,740.3508771929826,18.791666666666668,757.8947368421053,19C775.438596491228,19.208333333333332,791.2280701754386,42.75,800,49" transform="matrix(1,0,0,1,0,160)"></path><path d="M10,10C16.68859649122807,12.916666666666668,26.644736842105264,28.375,42.10526315789474,24C57.56578947368422,19.625,66.66666666666667,-9.75,84.21052631578948,-11C101.75438596491229,-12.25,108.77192982456141,16.75,126.31578947368422,18C143.859649122807,19.25,150.87719298245617,-5.416666666666667,168.42105263157896,-5C185.96491228070175,-4.583333333333333,192.9824561403509,18.958333333333332,210.5263157894737,20C228.0701754385965,21.041666666666668,235.08771929824564,-1.0416666666666667,252.63157894736844,0C270.17543859649123,1.0416666666666667,277.1929824561404,26.041666666666668,294.7368421052632,25C312.280701754386,23.958333333333332,319.2982456140351,-6.875,336.8421052631579,-5C354.3859649122807,-3.125,361.40350877192986,32.75,378.94736842105266,34C396.49122807017545,35.25,403.5087719298246,-0.04166666666666674,421.0526315789474,1C438.5964912280702,2.041666666666667,445.61403508771934,38.791666666666664,463.15789473684214,39C480.70175438596493,39.208333333333336,487.7192982456141,1.5833333333333335,505.2631578947369,2C522.8070175438597,2.4166666666666665,529.8245614035088,38.291666666666664,547.3684210526317,41C564.9122807017545,43.708333333333336,571.9298245614036,15.208333333333334,589.4736842105264,15C607.0175438596491,14.791666666666666,614.0350877192982,39.791666666666664,631.578947368421,40C649.1228070175439,40.208333333333336,656.140350877193,14.333333333333334,673.6842105263158,16C691.2280701754387,17.666666666666668,698.2456140350878,47.375,715.7894736842106,48C733.3333333333335,48.625,740.3508771929826,18.791666666666668,757.8947368421053,19C775.438596491228,19.208333333333332,791.2280701754386,42.75,800,49" transform="matrix(1,0,0,1,0,128)"></path><path d="M10,10C16.68859649122807,12.916666666666668,26.644736842105264,28.375,42.10526315789474,24C57.56578947368422,19.625,66.66666666666667,-9.75,84.21052631578948,-11C101.75438596491229,-12.25,108.77192982456141,16.75,126.31578947368422,18C143.859649122807,19.25,150.87719298245617,-5.416666666666667,168.42105263157896,-5C185.96491228070175,-4.583333333333333,192.9824561403509,18.958333333333332,210.5263157894737,20C228.0701754385965,21.041666666666668,235.08771929824564,-1.0416666666666667,252.63157894736844,0C270.17543859649123,1.0416666666666667,277.1929824561404,26.041666666666668,294.7368421052632,25C312.280701754386,23.958333333333332,319.2982456140351,-6.875,336.8421052631579,-5C354.3859649122807,-3.125,361.40350877192986,32.75,378.94736842105266,34C396.49122807017545,35.25,403.5087719298246,-0.04166666666666674,421.0526315789474,1C438.5964912280702,2.041666666666667,445.61403508771934,38.791666666666664,463.15789473684214,39C480.70175438596493,39.208333333333336,487.7192982456141,1.5833333333333335,505.2631578947369,2C522.8070175438597,2.4166666666666665,529.8245614035088,38.291666666666664,547.3684210526317,41C564.9122807017545,43.708333333333336,571.9298245614036,15.208333333333334,589.4736842105264,15C607.0175438596491,14.791666666666666,614.0350877192982,39.791666666666664,631.578947368421,40C649.1228070175439,40.208333333333336,656.140350877193,14.333333333333334,673.6842105263158,16C691.2280701754387,17.666666666666668,698.2456140350878,47.375,715.7894736842106,48C733.3333333333335,48.625,740.3508771929826,18.791666666666668,757.8947368421053,19C775.438596491228,19.208333333333332,791.2280701754386,42.75,800,49" transform="matrix(1,0,0,1,0,96)"></path><path d="M10,10C16.68859649122807,12.916666666666668,26.644736842105264,28.375,42.10526315789474,24C57.56578947368422,19.625,66.66666666666667,-9.75,84.21052631578948,-11C101.75438596491229,-12.25,108.77192982456141,16.75,126.31578947368422,18C143.859649122807,19.25,150.87719298245617,-5.416666666666667,168.42105263157896,-5C185.96491228070175,-4.583333333333333,192.9824561403509,18.958333333333332,210.5263157894737,20C228.0701754385965,21.041666666666668,235.08771929824564,-1.0416666666666667,252.63157894736844,0C270.17543859649123,1.0416666666666667,277.1929824561404,26.041666666666668,294.7368421052632,25C312.280701754386,23.958333333333332,319.2982456140351,-6.875,336.8421052631579,-5C354.3859649122807,-3.125,361.40350877192986,32.75,378.94736842105266,34C396.49122807017545,35.25,403.5087719298246,-0.04166666666666674,421.0526315789474,1C438.5964912280702,2.041666666666667,445.61403508771934,38.791666666666664,463.15789473684214,39C480.70175438596493,39.208333333333336,487.7192982456141,1.5833333333333335,505.2631578947369,2C522.8070175438597,2.4166666666666665,529.8245614035088,38.291666666666664,547.3684210526317,41C564.9122807017545,43.708333333333336,571.9298245614036,15.208333333333334,589.4736842105264,15C607.0175438596491,14.791666666666666,614.0350877192982,39.791666666666664,631.578947368421,40C649.1228070175439,40.208333333333336,656.140350877193,14.333333333333334,673.6842105263158,16C691.2280701754387,17.666666666666668,698.2456140350878,47.375,715.7894736842106,48C733.3333333333335,48.625,740.3508771929826,18.791666666666668,757.8947368421053,19C775.438596491228,19.208333333333332,791.2280701754386,42.75,800,49" transform="matrix(1,0,0,1,0,64)"></path><path d="M10,10C16.68859649122807,12.916666666666668,26.644736842105264,28.375,42.10526315789474,24C57.56578947368422,19.625,66.66666666666667,-9.75,84.21052631578948,-11C101.75438596491229,-12.25,108.77192982456141,16.75,126.31578947368422,18C143.859649122807,19.25,150.87719298245617,-5.416666666666667,168.42105263157896,-5C185.96491228070175,-4.583333333333333,192.9824561403509,18.958333333333332,210.5263157894737,20C228.0701754385965,21.041666666666668,235.08771929824564,-1.0416666666666667,252.63157894736844,0C270.17543859649123,1.0416666666666667,277.1929824561404,26.041666666666668,294.7368421052632,25C312.280701754386,23.958333333333332,319.2982456140351,-6.875,336.8421052631579,-5C354.3859649122807,-3.125,361.40350877192986,32.75,378.94736842105266,34C396.49122807017545,35.25,403.5087719298246,-0.04166666666666674,421.0526315789474,1C438.5964912280702,2.041666666666667,445.61403508771934,38.791666666666664,463.15789473684214,39C480.70175438596493,39.208333333333336,487.7192982456141,1.5833333333333335,505.2631578947369,2C522.8070175438597,2.4166666666666665,529.8245614035088,38.291666666666664,547.3684210526317,41C564.9122807017545,43.708333333333336,571.9298245614036,15.208333333333334,589.4736842105264,15C607.0175438596491,14.791666666666666,614.0350877192982,39.791666666666664,631.578947368421,40C649.1228070175439,40.208333333333336,656.140350877193,14.333333333333334,673.6842105263158,16C691.2280701754387,17.666666666666668,698.2456140350878,47.375,715.7894736842106,48C733.3333333333335,48.625,740.3508771929826,18.791666666666668,757.8947368421053,19C775.438596491228,19.208333333333332,791.2280701754386,42.75,800,49" transform="matrix(1,0,0,1,0,32)"></path></g></svg>